<svg height="512" viewBox="0 0 256 256" width="512" xmlns="http://www.w3.org/2000/svg"><path d="m170.006 58.616v-53.616h-132.614a5 5 0 0 0 -5 5v236a5 5 0 0 0 5 5h181.213a5 5 0 0 0 5-5v-187.384z" fill="#fc5d3d"/><path d="m223.609 58.62v8.33h-56.93a5 5 0 0 1 -5-5v-56.95h8.33z" fill="#d95034"/><path d="m170.006 5v53.616h53.599z" fill="#ffcbc2"/><g fill="#fff"><rect height="60.33" rx="10" width="164.083" x="45.957" y="176.328"/><path d="m89.679 136.385-20.7-20.712a7.716 7.716 0 0 1 0-10.938l20.7-20.712a7.742 7.742 0 0 1 10.95 10.949l-15.229 15.228 15.232 15.232a7.742 7.742 0 1 1 -10.95 10.949z"/><path d="m155.385 136.385a7.73 7.73 0 0 1 0-10.949l15.232-15.236-15.232-15.228a7.742 7.742 0 0 1 10.949-10.949l20.7 20.7a7.772 7.772 0 0 1 0 10.949l-20.7 20.712a7.756 7.756 0 0 1 -10.949.001z"/><path d="m120.176 138.366a7.751 7.751 0 0 1 -5.387-9.535l11.517-41.4a7.738 7.738 0 1 1 14.912 4.138l-11.507 41.412a7.756 7.756 0 0 1 -9.535 5.385z"/></g><path d="m45.958 166.167a2.5 2.5 0 0 1 -2.5-2.5v-4.156a2.5 2.5 0 0 1 5 0v4.156a2.5 2.5 0 0 1 -2.5 2.5zm0-14.156a2.5 2.5 0 0 1 -2.5-2.5v-131.844a2.5 2.5 0 0 1 2.5-2.5h107.155a2.5 2.5 0 0 1 0 5h-104.655v129.344a2.5 2.5 0 0 1 -2.5 2.5z" fill="#ffcbc2"/><path d="m210.04 166.167a2.5 2.5 0 0 1 -2.5-2.5v-8.667a2.5 2.5 0 0 1 5 0v8.667a2.5 2.5 0 0 1 -2.5 2.5zm0-18.667a2.5 2.5 0 0 1 -2.5-2.5v-71a2.5 2.5 0 1 1 5 0v71a2.5 2.5 0 0 1 -2.5 2.5z" fill="#ffcbc2"/><path d="m223.6 220.52a2.5 2.5 0 1 0 2.5 2.49 2.5 2.5 0 0 0 -2.5-2.49z"/><path d="m223.6 230.52a2.5 2.5 0 0 0 -2.49 2.49v12.99a2.514 2.514 0 0 1 -2.5 2.5h-181.22a2.5 2.5 0 0 1 -2.5-2.5v-180.09a2.5 2.5 0 0 0 -5 0v180.09a7.522 7.522 0 0 0 7.5 7.5h181.22a7.506 7.506 0 0 0 7.49-7.5v-12.99a2.5 2.5 0 0 0 -2.5-2.49z"/><circle cx="32.39" cy="55.91" r="2.5"/><path d="m32.39 48.41a2.5 2.5 0 0 0 2.5-2.5v-35.91a2.5 2.5 0 0 1 2.5-2.5h130.11l.01 51.11v.01a2.524 2.524 0 0 0 2.5 2.5h51.09l.01 151.89a2.5 2.5 0 1 0 5 0 .01.01 0 0 0 -.01-.01v-154.39a2.61 2.61 0 0 0 -.729-1.76l-53.601-53.62a2.624 2.624 0 0 0 -1.76-.73h-132.62a7.522 7.522 0 0 0 -7.5 7.5v35.91a2.5 2.5 0 0 0 2.5 2.5zm140.11 7.71v-45.08l45.07 45.08z"/><path d="m63.314 223.979a2.5 2.5 0 0 0 2.5-2.5v-12.486h13.308v12.486a2.5 2.5 0 0 0 5 0v-29.973a2.5 2.5 0 0 0 -5 0v12.487h-13.308v-12.487a2.5 2.5 0 1 0 -5 0v29.973a2.5 2.5 0 0 0 2.5 2.5z"/><path d="m98.3 194.486h5.964v26.514a2.5 2.5 0 0 0 5 0v-26.514h7.344a2.5 2.5 0 1 0 0-5h-18.308a2.5 2.5 0 0 0 0 5z"/><path d="m132.963 223.5a2.5 2.5 0 0 0 2.5-2.5v-22.5l8.037 8.923a2.578 2.578 0 0 0 3.714 0l8.036-8.923v22.5a2.5 2.5 0 1 0 5 0v-29.014a2.5 2.5 0 0 0 -4.357-1.673l-10.536 11.7-10.536-11.7a2.5 2.5 0 0 0 -4.358 1.673v29.014a2.5 2.5 0 0 0 2.5 2.5z"/><path d="m175.067 223.979h17.617a2.5 2.5 0 0 0 0-5h-15.117v-27.473a2.5 2.5 0 1 0 -5 0v29.973a2.5 2.5 0 0 0 2.5 2.5z"/><path d="m102.4 82.255a10.254 10.254 0 0 0 -14.485 0l-20.693 20.7a10.213 10.213 0 0 0 -.008 14.48l20.7 20.712.007.008a10.242 10.242 0 0 0 14.479-14.487l-13.468-13.468 13.468-13.46a10.223 10.223 0 0 0 0-14.485zm-3.539 10.945-15.232 15.237a2.5 2.5 0 0 0 0 3.535l15.232 15.228a5.243 5.243 0 1 1 -7.419 7.41l-20.701-20.71a5.213 5.213 0 0 1 .007-7.4l20.7-20.711a5.242 5.242 0 0 1 7.413 7.411z"/><path d="m153.618 138.153.007.007a10.3 10.3 0 0 0 14.477-.007l20.7-20.712a10.277 10.277 0 0 0 0-14.484l-20.7-20.7a10.241 10.241 0 0 0 -14.483 14.484l13.463 13.459-13.465 13.464a10.256 10.256 0 0 0 .001 14.489zm3.535-10.95 15.231-15.231a2.5 2.5 0 0 0 0-3.535l-15.228-15.23a5.242 5.242 0 1 1 7.41-7.416l20.695 20.694a5.267 5.267 0 0 1 .006 7.421l-20.695 20.7a5.242 5.242 0 1 1 -7.419-7.408z"/><path d="m119.517 140.778a10.282 10.282 0 0 0 12.6-7.129l11.5-41.409a10.237 10.237 0 1 0 -19.717-5.481l-11.523 41.411a10.288 10.288 0 0 0 7.126 12.6zm-2.317-11.278 11.518-41.4a5.237 5.237 0 1 1 10.094 2.8l-11.512 41.411a5.244 5.244 0 0 1 -10.1-2.811z"/><path d="m43.458 186.328v40.33a12.514 12.514 0 0 0 12.5 12.5h144.082a12.515 12.515 0 0 0 12.5-12.5v-40.33a12.514 12.514 0 0 0 -12.5-12.5h-144.082a12.514 12.514 0 0 0 -12.5 12.5zm164.082 0v40.33a7.509 7.509 0 0 1 -7.5 7.5h-144.082a7.509 7.509 0 0 1 -7.5-7.5v-40.33a7.508 7.508 0 0 1 7.5-7.5h144.082a7.509 7.509 0 0 1 7.5 7.5z"/></svg>